<svg width="60" height="60" viewBox="0 0 60 60" fill="none" xmlns="http://www.w3.org/2000/svg">
<path d="M47.5 15H40V12.5C40 11.1739 39.4732 9.90215 38.5355 8.96447C37.5979 8.02678 36.3261 7.5 35 7.5H25C23.6739 7.5 22.4021 8.02678 21.4645 8.96447C20.5268 9.90215 20 11.1739 20 12.5V15H12.5C10.5109 15 8.60322 15.7902 7.1967 17.1967C5.79018 18.6032 5 20.5109 5 22.5V45C5 46.9891 5.79018 48.8968 7.1967 50.3033C8.60322 51.7098 10.5109 52.5 12.5 52.5H47.5C49.4891 52.5 51.3968 51.7098 52.8033 50.3033C54.2098 48.8968 55 46.9891 55 45V22.5C55 20.5109 54.2098 18.6032 52.8033 17.1967C51.3968 15.7902 49.4891 15 47.5 15ZM25 12.5H35V15H25V12.5ZM50 45C50 45.663 49.7366 46.2989 49.2678 46.7678C48.7989 47.2366 48.163 47.5 47.5 47.5H12.5C11.837 47.5 11.2011 47.2366 10.7322 46.7678C10.2634 46.2989 10 45.663 10 45V30.975L21.7 35C21.9655 35.036 22.2345 35.036 22.5 35H37.5C37.7711 34.995 38.0403 34.9529 38.3 34.875L50 30.975V45ZM50 25.7L37.1 30H22.9L10 25.7V22.5C10 21.837 10.2634 21.2011 10.7322 20.7322C11.2011 20.2634 11.837 20 12.5 20H47.5C48.163 20 48.7989 20.2634 49.2678 20.7322C49.7366 21.2011 50 21.837 50 22.5V25.7Z" fill="#532DF5"/>
</svg>
