<svg width="60" height="60" viewBox="0 0 60 60" fill="none" xmlns="http://www.w3.org/2000/svg">
<path d="M25 12.5C24.5055 12.5 24.0222 12.6466 23.6111 12.9213C23.2 13.196 22.8795 13.5865 22.6903 14.0433C22.5011 14.5001 22.4516 15.0028 22.548 15.4877C22.6445 15.9727 22.8826 16.4181 23.2322 16.7678C23.5819 17.1174 24.0273 17.3555 24.5123 17.452C24.9972 17.5484 25.4999 17.4989 25.9567 17.3097C26.4135 17.1205 26.804 16.8 27.0787 16.3889C27.3534 15.9778 27.5 15.4945 27.5 15C27.5 14.337 27.2366 13.7011 26.7678 13.2322C26.2989 12.7634 25.663 12.5 25 12.5ZM15 12.5C14.5055 12.5 14.0222 12.6466 13.6111 12.9213C13.2 13.196 12.8795 13.5865 12.6903 14.0433C12.5011 14.5001 12.4516 15.0028 12.548 15.4877C12.6445 15.9727 12.8826 16.4181 13.2322 16.7678C13.5819 17.1174 14.0273 17.3555 14.5123 17.452C14.9972 17.5484 15.4999 17.4989 15.9567 17.3097C16.4135 17.1205 16.804 16.8 17.0787 16.3889C17.3534 15.9778 17.5 15.4945 17.5 15C17.5 14.337 17.2366 13.7011 16.7678 13.2322C16.2989 12.7634 15.663 12.5 15 12.5ZM35 12.5C34.5055 12.5 34.0222 12.6466 33.6111 12.9213C33.2 13.196 32.8795 13.5865 32.6903 14.0433C32.5011 14.5001 32.4516 15.0028 32.548 15.4877C32.6445 15.9727 32.8826 16.4181 33.2322 16.7678C33.5819 17.1174 34.0273 17.3555 34.5123 17.452C34.9972 17.5484 35.4999 17.4989 35.9567 17.3097C36.4135 17.1205 36.804 16.8 37.0787 16.3889C37.3534 15.9778 37.5 15.4945 37.5 15C37.5 14.337 37.2366 13.7011 36.7678 13.2322C36.2989 12.7634 35.663 12.5 35 12.5ZM50 2.5H10C8.01088 2.5 6.10322 3.29018 4.6967 4.6967C3.29018 6.10322 2.5 8.01088 2.5 10V50C2.5 51.9891 3.29018 53.8968 4.6967 55.3033C6.10322 56.7098 8.01088 57.5 10 57.5H50C51.9891 57.5 53.8968 56.7098 55.3033 55.3033C56.7098 53.8968 57.5 51.9891 57.5 50V10C57.5 8.01088 56.7098 6.10322 55.3033 4.6967C53.8968 3.29018 51.9891 2.5 50 2.5ZM52.5 50C52.5 50.663 52.2366 51.2989 51.7678 51.7678C51.2989 52.2366 50.663 52.5 50 52.5H10C9.33696 52.5 8.70107 52.2366 8.23223 51.7678C7.76339 51.2989 7.5 50.663 7.5 50V27.5H52.5V50ZM52.5 22.5H7.5V10C7.5 9.33696 7.76339 8.70107 8.23223 8.23223C8.70107 7.76339 9.33696 7.5 10 7.5H50C50.663 7.5 51.2989 7.76339 51.7678 8.23223C52.2366 8.70107 52.5 9.33696 52.5 10V22.5Z" fill="white"/>
</svg>
