<svg width="90" height="48" viewBox="0 0 90 48" fill="none" xmlns="http://www.w3.org/2000/svg">
<path d="M2 10.5C1.17157 10.5 0.5 11.1716 0.5 12C0.5 12.8284 1.17157 13.5 2 13.5V10.5ZM89.0607 13.0607C89.6464 12.4749 89.6464 11.5251 89.0607 10.9393L79.5147 1.3934C78.9289 0.807611 77.9792 0.807611 77.3934 1.3934C76.8076 1.97919 76.8076 2.92893 77.3934 3.51472L85.8787 12L77.3934 20.4853C76.8076 21.0711 76.8076 22.0208 77.3934 22.6066C77.9792 23.1924 78.9289 23.1924 79.5147 22.6066L89.0607 13.0607ZM2 13.5H88V10.5H2V13.5Z" fill="#1D263A"/>
<path d="M33 37.5C33.8284 37.5 34.5 36.8284 34.5 36C34.5 35.1716 33.8284 34.5 33 34.5V37.5ZM0.939339 34.9393C0.353554 35.5251 0.353554 36.4749 0.939339 37.0607L10.4853 46.6066C11.0711 47.1924 12.0208 47.1924 12.6066 46.6066C13.1924 46.0208 13.1924 45.0711 12.6066 44.4853L4.12132 36L12.6066 27.5147C13.1924 26.9289 13.1924 25.9792 12.6066 25.3934C12.0208 24.8076 11.0711 24.8076 10.4853 25.3934L0.939339 34.9393ZM33 34.5L2 34.5V37.5L33 37.5V34.5Z" fill="#1D263A" fill-opacity="0.5"/>
</svg>
