<svg width="60" height="60" viewBox="0 0 60 60" fill="none" xmlns="http://www.w3.org/2000/svg">
<path d="M52.5 5H7.5C6.83696 5 6.20107 5.26339 5.73223 5.73223C5.26339 6.20107 5 6.83696 5 7.5V52.5C5 53.163 5.26339 53.7989 5.73223 54.2678C6.20107 54.7366 6.83696 55 7.5 55H22.5C23.163 55 23.7989 54.7366 24.2678 54.2678C24.7366 53.7989 25 53.163 25 52.5V25H52.5C53.163 25 53.7989 24.7366 54.2678 24.2678C54.7366 23.7989 55 23.163 55 22.5V7.5C55 6.83696 54.7366 6.20107 54.2678 5.73223C53.7989 5.26339 53.163 5 52.5 5V5ZM50 20H45V17.5C45 16.837 44.7366 16.2011 44.2678 15.7322C43.7989 15.2634 43.163 15 42.5 15C41.837 15 41.2011 15.2634 40.7322 15.7322C40.2634 16.2011 40 16.837 40 17.5V20H35V17.5C35 16.837 34.7366 16.2011 34.2678 15.7322C33.7989 15.2634 33.163 15 32.5 15C31.837 15 31.2011 15.2634 30.7322 15.7322C30.2634 16.2011 30 16.837 30 17.5V20H25V17.5C25 16.837 24.7366 16.2011 24.2678 15.7322C23.7989 15.2634 23.163 15 22.5 15C21.837 15 21.2011 15.2634 20.7322 15.7322C20.2634 16.2011 20 16.837 20 17.5V20H17.5C16.837 20 16.2011 20.2634 15.7322 20.7322C15.2634 21.2011 15 21.837 15 22.5C15 23.163 15.2634 23.7989 15.7322 24.2678C16.2011 24.7366 16.837 25 17.5 25H20V30H17.5C16.837 30 16.2011 30.2634 15.7322 30.7322C15.2634 31.2011 15 31.837 15 32.5C15 33.163 15.2634 33.7989 15.7322 34.2678C16.2011 34.7366 16.837 35 17.5 35H20V40H17.5C16.837 40 16.2011 40.2634 15.7322 40.7322C15.2634 41.2011 15 41.837 15 42.5C15 43.163 15.2634 43.7989 15.7322 44.2678C16.2011 44.7366 16.837 45 17.5 45H20V50H10V10H50V20Z" fill="#532DF5"/>
</svg>
